<svg id="Layer_1" data-name="Layer 1" xmlns="http://www.w3.org/2000/svg" viewBox="0 0 96.24 65.28"><defs><style>.cls-1{fill:none;stroke:#000;stroke-miterlimit:10;}</style></defs><title>envelope</title><path class="cls-1" d="M3.77,18.62l.14-.11.1-.06.14-.09.11-.06.15-.08.11,0,.16-.07.11,0L5,18l.11,0,.18,0,.11,0,.2,0H94.44l.2,0,.11,0,.18,0L95,18l.17,0,.11,0,.16.07.11,0,.15.08.11.06.14.09.1.06.14.11.07.05L52.52,62.45a3.57,3.57,0,0,1-5,0L3.7,18.67l.07-.05ZM2.38,27.46,25,50,2.38,72.6ZM94.05,82.14H6a3.56,3.56,0,0,1-2.25-.81L30,55.08,42.43,67.5a10.69,10.69,0,0,0,15.14,0L70.05,55,96.34,81.31a3.55,3.55,0,0,1-2.29.83Zm3.57-9.66L75.1,50,97.62,27.46Z" transform="translate(-1.88 -17.36)"/></svg>