<svg id="Layer_1" data-name="Layer 1" xmlns="http://www.w3.org/2000/svg" viewBox="0 0 74.75 74.75"><defs><style>.cls-1{fill:none;stroke:#000;stroke-miterlimit:10;}</style></defs><title>phone</title><path class="cls-1" d="M13.12,21.81a8.67,8.67,0,0,1,8.67-8.68H33.42A8.65,8.65,0,0,1,42,20.79a41.76,41.76,0,0,0,1.57,7.59,8.67,8.67,0,0,1-2.14,8.67l-4.71,4.71A54.25,54.25,0,0,0,58.24,63.25L63,58.54a8.67,8.67,0,0,1,8.67-2.14A42.65,42.65,0,0,0,79.21,58a8.64,8.64,0,0,1,7.67,8.6V78.21a8.68,8.68,0,0,1-9.49,8.63,70.54,70.54,0,0,1-24-6.58,71.28,71.28,0,0,1-33.7-33.7,70.54,70.54,0,0,1-6.58-24c0-.27,0-.53,0-.8Zm25.1,9.13" transform="translate(-12.62 -12.63)"/></svg>